<svg width="84" height="20" viewBox="0 0 84 20" fill="none" xmlns="http://www.w3.org/2000/svg">
<path d="M6.368 19.24C5.52 19.24 4.752 19.12 4.064 18.88C3.392 18.64 2.816 18.296 2.336 17.848C1.856 17.4 1.488 16.856 1.232 16.216C0.976 15.576 0.848 14.864 0.848 14.08V10.72C0.848 9.936 0.976 9.224 1.232 8.584C1.488 7.944 1.856 7.4 2.336 6.952C2.816 6.504 3.392 6.16 4.064 5.92C4.752 5.68 5.52 5.56 6.368 5.56C7.12 5.56 7.808 5.664 8.432 5.872C9.072 6.08 9.632 6.384 10.112 6.784C10.592 7.184 10.984 7.664 11.288 8.224C11.608 8.784 11.816 9.416 11.912 10.12H9.272C9.16 9.448 8.84 8.904 8.312 8.488C7.784 8.072 7.136 7.864 6.368 7.864C5.456 7.864 4.744 8.12 4.232 8.632C3.72 9.128 3.464 9.824 3.464 10.72V14.08C3.464 14.976 3.72 15.672 4.232 16.168C4.744 16.664 5.456 16.912 6.368 16.912C7.136 16.912 7.784 16.712 8.312 16.312C8.84 15.896 9.16 15.352 9.272 14.68H11.912C11.688 16.088 11.08 17.2 10.088 18.016C9.112 18.832 7.872 19.24 6.368 19.24ZM15.2866 1.48H17.9266V5.8C17.9266 6.024 17.9186 6.272 17.9026 6.544C17.8866 6.8 17.8626 7.048 17.8306 7.288C17.8146 7.512 17.7986 7.704 17.7826 7.864C17.7826 8.008 17.7826 8.08 17.7826 8.08H17.9986C18.1746 7.28 18.5666 6.664 19.1746 6.232C19.7986 5.784 20.5826 5.56 21.5266 5.56C22.1826 5.56 22.7746 5.672 23.3026 5.896C23.8466 6.12 24.3026 6.44 24.6706 6.856C25.0546 7.272 25.3506 7.776 25.5586 8.368C25.7666 8.944 25.8706 9.592 25.8706 10.312V19H23.2546V10.672C23.2546 9.776 23.0146 9.08 22.5346 8.584C22.0706 8.072 21.4306 7.816 20.6146 7.816C19.7826 7.816 19.1266 8.08 18.6466 8.608C18.1666 9.136 17.9266 9.856 17.9266 10.768V19H15.2866V1.48ZM29.8933 19V16.6H34.6693V8.176H30.4933V5.8H37.2133V16.6H41.1013V19H29.8933ZM35.3413 0.639999H35.8933C36.3893 0.639999 36.7893 0.783999 37.0933 1.072C37.3973 1.344 37.5493 1.712 37.5493 2.176C37.5493 2.64 37.3973 3.008 37.0933 3.28C36.7893 3.552 36.3893 3.688 35.8933 3.688H35.3413C34.8453 3.688 34.4453 3.552 34.1413 3.28C33.8533 3.008 33.7093 2.64 33.7093 2.176C33.7093 1.712 33.8533 1.344 34.1413 1.072C34.4453 0.783999 34.8453 0.639999 35.3413 0.639999ZM43.5159 15.232C43.5159 13.952 43.9559 12.944 44.8359 12.208C45.7319 11.456 46.9399 11.08 48.4599 11.08H52.0359V9.952C52.0359 9.248 51.7879 8.696 51.2919 8.296C50.8119 7.896 50.1239 7.696 49.2279 7.696C48.5399 7.696 47.9559 7.824 47.4759 8.08C46.9959 8.336 46.6839 8.688 46.5399 9.136H43.9239C44.1319 8.032 44.7159 7.16 45.6759 6.52C46.6359 5.88 47.8279 5.56 49.2519 5.56C50.9319 5.56 52.2519 5.944 53.2119 6.712C54.1879 7.48 54.6759 8.536 54.6759 9.88V19H52.2279V16.432H52.0359C51.8599 17.296 51.3879 17.984 50.6199 18.496C49.8519 18.992 48.9239 19.24 47.8359 19.24C46.5079 19.24 45.4519 18.88 44.6679 18.16C43.8999 17.44 43.5159 16.464 43.5159 15.232ZM48.6279 17.128C49.1079 17.128 49.5559 17.064 49.9719 16.936C50.3879 16.808 50.7479 16.632 51.0519 16.408C51.3559 16.168 51.5959 15.896 51.7719 15.592C51.9479 15.272 52.0359 14.928 52.0359 14.56V12.904H48.4839C47.7639 12.904 47.1959 13.088 46.7799 13.456C46.3639 13.824 46.1559 14.344 46.1559 15.016C46.1559 15.688 46.3719 16.208 46.8039 16.576C47.2359 16.944 47.8439 17.128 48.6279 17.128ZM63.3065 19.24C61.8345 19.24 60.6345 18.928 59.7065 18.304C58.7945 17.664 58.2745 16.792 58.1465 15.688H60.8825C60.9785 16.12 61.2425 16.464 61.6745 16.72C62.1225 16.976 62.6665 17.104 63.3065 17.104H64.1705C64.9545 17.104 65.5625 16.944 65.9945 16.624C66.4425 16.304 66.6665 15.864 66.6665 15.304C66.6665 14.344 65.9625 13.768 64.5545 13.576L62.6345 13.312C61.2105 13.136 60.1545 12.728 59.4665 12.088C58.7945 11.448 58.4585 10.552 58.4585 9.4C58.4585 8.184 58.8825 7.24 59.7305 6.568C60.5945 5.896 61.8185 5.56 63.4025 5.56H64.2425C65.6345 5.56 66.7625 5.872 67.6265 6.496C68.5065 7.104 69.0265 7.936 69.1865 8.992H66.4745C66.3785 8.592 66.1305 8.28 65.7305 8.056C65.3305 7.816 64.8345 7.696 64.2425 7.696H63.4025C62.6505 7.696 62.0745 7.84 61.6745 8.128C61.2745 8.4 61.0745 8.816 61.0745 9.376C61.0745 9.84 61.2185 10.2 61.5065 10.456C61.8105 10.712 62.2905 10.88 62.9465 10.96L64.9145 11.224C66.4185 11.432 67.5225 11.856 68.2265 12.496C68.9305 13.136 69.2825 14.048 69.2825 15.232C69.2825 16.512 68.8425 17.504 67.9625 18.208C67.0825 18.896 65.8185 19.24 64.1705 19.24H63.3065ZM72.2971 15.232C72.2971 13.952 72.7371 12.944 73.6171 12.208C74.5131 11.456 75.7211 11.08 77.2411 11.08H80.8171V9.952C80.8171 9.248 80.5691 8.696 80.0731 8.296C79.5931 7.896 78.9051 7.696 78.0091 7.696C77.3211 7.696 76.7371 7.824 76.2571 8.08C75.7771 8.336 75.4651 8.688 75.3211 9.136H72.7051C72.9131 8.032 73.4971 7.16 74.4571 6.52C75.4171 5.88 76.6091 5.56 78.0331 5.56C79.7131 5.56 81.0331 5.944 81.9931 6.712C82.9691 7.48 83.4571 8.536 83.4571 9.88V19H81.0091V16.432H80.8171C80.6411 17.296 80.1691 17.984 79.4011 18.496C78.6331 18.992 77.7051 19.24 76.6171 19.24C75.2891 19.24 74.2331 18.88 73.4491 18.16C72.6811 17.44 72.2971 16.464 72.2971 15.232ZM77.4091 17.128C77.8891 17.128 78.3371 17.064 78.7531 16.936C79.1691 16.808 79.5291 16.632 79.8331 16.408C80.1371 16.168 80.3771 15.896 80.5531 15.592C80.7291 15.272 80.8171 14.928 80.8171 14.56V12.904H77.2651C76.5451 12.904 75.9771 13.088 75.5611 13.456C75.1451 13.824 74.9371 14.344 74.9371 15.016C74.9371 15.688 75.1531 16.208 75.5851 16.576C76.0171 16.944 76.6251 17.128 77.4091 17.128Z" fill="white"/>
</svg>
