<svg width="400" height="400" viewBox="0 0 400 400" fill="none" xmlns="http://www.w3.org/2000/svg">
<path d="M148.257 6.80939C182.155 -2.2698 217.845 -2.2698 251.744 6.80941L227.995 95.4784C209.655 90.5662 190.345 90.5662 172.005 95.4784L148.257 6.80939Z" fill="#F3E401"/>
<path d="M58.6528 58.5046C83.4803 33.703 114.397 15.8707 148.297 6.79859L172.027 95.4725C153.686 100.381 136.96 110.029 123.527 123.447L58.6528 58.5046Z" fill="#8CBA26"/>
<path d="M6.84199 148.135C15.9425 114.242 33.8007 83.341 58.6231 58.5342L123.511 123.463C110.081 136.884 100.42 153.603 95.496 171.94L6.84199 148.135Z" fill="#008C5B"/>
<path d="M6.78776 251.663C-2.27725 217.761 -2.26231 182.07 6.83108 148.176L95.4901 171.962C90.5703 190.299 90.5622 209.609 95.4666 227.951L6.78776 251.663Z" fill="#0795BB"/>
<path d="M58.5046 341.347C33.703 316.52 15.8707 285.603 6.7986 251.703L95.4725 227.973C100.381 246.314 110.029 263.04 123.447 276.473L58.5046 341.347Z" fill="#2B71AF"/>
<path d="M148.135 393.158C114.242 384.058 83.341 366.199 58.5343 341.377L123.463 276.489C136.884 289.919 153.603 299.58 171.94 304.504L148.135 393.158Z" fill="#454E99"/>
<path d="M251.663 393.212C217.761 402.277 182.07 402.262 148.176 393.169L171.962 304.51C190.299 309.43 209.609 309.438 227.951 304.533L251.663 393.212Z" fill="#6D398B"/>
<path d="M341.347 341.495C316.52 366.297 285.603 384.129 251.703 393.201L227.973 304.527C246.314 299.619 263.041 289.971 276.473 276.553L341.347 341.495Z" fill="#C3037C"/>
<path d="M393.158 251.865C384.058 285.758 366.199 316.659 341.377 341.466L276.489 276.537C289.919 263.116 299.58 246.397 304.504 228.06L393.158 251.865Z" fill="#E32322"/>
<path d="M393.212 148.337C402.277 182.239 402.262 217.93 393.169 251.824L304.51 228.038C309.43 209.701 309.438 190.391 304.533 172.049L393.212 148.337Z" fill="#E96220"/>
<path d="M251.865 6.84196C285.758 15.9425 316.659 33.8007 341.466 58.623L276.537 123.511C263.116 110.081 246.397 100.42 228.06 95.496L251.865 6.84196Z" fill="#FCC40B"/>
<mask id="path-12-outside-1_50_34" maskUnits="userSpaceOnUse" x="271" y="53" width="128" height="125" fill="black">
<rect fill="white" x="271" y="53" width="128" height="125"/>
<path d="M341.495 58.6527C366.297 83.4803 384.129 114.397 393.201 148.297L304.527 172.027C299.619 153.686 289.971 136.959 276.553 123.527L341.495 58.6527Z"/>
</mask>
<path d="M341.495 58.6527C366.297 83.4803 384.129 114.397 393.201 148.297L304.527 172.027C299.619 153.686 289.971 136.959 276.553 123.527L341.495 58.6527Z" fill="#F18D1D"/>
<path d="M341.495 58.6527C366.297 83.4803 384.129 114.397 393.201 148.297L304.527 172.027C299.619 153.686 289.971 136.959 276.553 123.527L341.495 58.6527Z" stroke="white" stroke-width="10" stroke-linejoin="round" mask="url(#path-12-outside-1_50_34)"/>
</svg>
